<svg xmlns="https://www.w3.org/2000/svg" vertion="1.1" text-anchor="middle" count=16 pid=p10><g><rect height="50" width="170" x="90" y="30" rx="4" ry="4" pid="p1" class="p1" ship="[{&quot;pid&quot;:&quot;p3&quot;,&quot;which&quot;:1,&quot;anchor&quot;:8},{&quot;pid&quot;:&quot;p16&quot;,&quot;which&quot;:1,&quot;anchor&quot;:8}]" index="web.code.vimer" text="p9" args="usr/volcanos/,plugin/local/wiki/draw.js"></rect><text x="175" y="55" pid="p9" class="p9">vimer</text></g><g><rect height="50" width="230" x="480" y="240" rx="4" ry="4" pid="p2" class="p2" ship="[{&quot;pid&quot;:&quot;p3&quot;,&quot;which&quot;:2,&quot;anchor&quot;:2}]" text="p6" index="web.wiki.word"></rect><text x="595" y="265" pid="p6" class="p6" style="
    /* color: red; */
    /* stroke: red; */
    /* fill: red; */
">word</text></g><line x1="175" y1="80" x2="595" y2="240" ship="[{&quot;pid&quot;:&quot;p1&quot;},{&quot;pid&quot;:&quot;p2&quot;}]" pid="p3" class="p3"></line><g><rect height="50" width="130" x="130" y="210" rx="4" ry="4" pid="p4" class="p4" index="web.code.xterm" text="p8" args="bash" ship="[{&quot;pid&quot;:&quot;p16&quot;,&quot;which&quot;:2,&quot;anchor&quot;:2}]"></rect><text x="195" y="235" pid="p8" class="p8">xterm</text></g><g class="sub" style="opacity: 1; display: block;"><g><rect height="70" width="180" x="580" y="90" rx="4" ry="4" pid="p5" class="p5" text="p7" index="cli.runtime"></rect><text x="670" y="125" pid="p7" class="p7">runtime</text></g></g><g><rect height="50" width="190" x="870" y="180" rx="4" ry="4" pid="p10" class="p10" text="p11" index="web.code.git.trend" args="icebergs"></rect><text x="965" y="205" pid="p11" class="p11">trend</text></g><g><rect height="50" width="220" x="1190" y="130" rx="4" ry="4" pid="p12" class="p12" text="p13" index="cli.runtime" args="diskinfo"></rect><text x="1300" y="155" pid="p13" class="p13">diskinfo</text></g><g><rect height="50" width="210" x="1140" y="290" rx="4" ry="4" pid="p14" class="p14" text="p15" index="web.code.git.spide" args="icebergs"></rect><text x="1245" y="315" pid="p15" class="p15">spide</text></g><line x1="175" y1="80" x2="195" y2="210" ship="[{&quot;pid&quot;:&quot;p1&quot;},{&quot;pid&quot;:&quot;p4&quot;}]" pid="p16" class="p16"></line></svg>