<svg xmlns="https://www.w3.org/2000/svg" vertion="1.1" text-anchor="middle" count=19 pid=p12><g><rect height="60" width="200" x="270" y="50" rx="4" ry="4" pid="p1" class="p1" text="p2" ship="[{&quot;pid&quot;:&quot;p13&quot;,&quot;which&quot;:1,&quot;anchor&quot;:8},{&quot;pid&quot;:&quot;p15&quot;,&quot;which&quot;:1,&quot;anchor&quot;:8}]"></rect><text x="370" y="80" pid="p2" class="p2">table.js</text></g><g><rect height="50" width="160" x="170" y="160" rx="4" ry="4" pid="p3" class="p3" text="p4" ship="[{&quot;pid&quot;:&quot;p13&quot;,&quot;which&quot;:2,&quot;anchor&quot;:2},{&quot;pid&quot;:&quot;p14&quot;,&quot;which&quot;:1,&quot;anchor&quot;:8}]"></rect><text x="250" y="185" pid="p4" class="p4">word.js</text></g><g><rect height="50" width="140" x="430" y="160" rx="4" ry="4" pid="p5" class="p5" text="p6" ship="[{&quot;pid&quot;:&quot;p15&quot;,&quot;which&quot;:2,&quot;anchor&quot;:2},{&quot;pid&quot;:&quot;p16&quot;,&quot;which&quot;:1,&quot;anchor&quot;:8},{&quot;pid&quot;:&quot;p17&quot;,&quot;which&quot;:1,&quot;anchor&quot;:8}]"></rect><text x="500" y="185" pid="p6" class="p6">draw.js</text></g><g><rect height="60" width="170" x="70" y="270" rx="4" ry="4" pid="p7" class="p7" text="p8" ship="[{&quot;pid&quot;:&quot;p14&quot;,&quot;which&quot;:2,&quot;anchor&quot;:2}]"></rect><text x="155" y="300" pid="p8" class="p8">portal.js</text></g><g><rect height="60" width="170" x="320" y="270" rx="4" ry="4" pid="p9" class="p9" text="p10" ship="[{&quot;pid&quot;:&quot;p16&quot;,&quot;which&quot;:2,&quot;anchor&quot;:2}]"></rect><text x="405" y="300" pid="p10" class="p10">trend.js</text></g><g><rect height="50" width="160" x="580" y="270" rx="4" ry="4" pid="p11" class="p11" text="p12" ship="[{&quot;pid&quot;:&quot;p17&quot;,&quot;which&quot;:2,&quot;anchor&quot;:2}]"></rect><text x="660" y="295" pid="p12" class="p12">spide.js</text></g><line x1="370" y1="110" x2="250" y2="160" ship="[{&quot;pid&quot;:&quot;p1&quot;},{&quot;pid&quot;:&quot;p3&quot;}]" pid="p13" class="p13"></line><line x1="250" y1="210" x2="155" y2="270" ship="[{&quot;pid&quot;:&quot;p3&quot;},{&quot;pid&quot;:&quot;p7&quot;}]" pid="p14" class="p14"></line><line x1="370" y1="110" x2="500" y2="160" ship="[{&quot;pid&quot;:&quot;p1&quot;},{&quot;pid&quot;:&quot;p5&quot;}]" pid="p15" class="p15"></line><line x1="500" y1="210" x2="405" y2="270" ship="[{&quot;pid&quot;:&quot;p5&quot;},{&quot;pid&quot;:&quot;p9&quot;}]" pid="p16" class="p16"></line><line x1="500" y1="210" x2="660" y2="270" ship="[{&quot;pid&quot;:&quot;p5&quot;},{&quot;pid&quot;:&quot;p11&quot;}]" pid="p17" class="p17"></line></svg>